<svg width="24" height="25" viewBox="0 0 24 25" fill="none" xmlns="http://www.w3.org/2000/svg">
<path fill-rule="evenodd" clip-rule="evenodd" d="M16.3035 3.25031H7.65449C4.63949 3.25031 2.75049 5.38431 2.75049 8.4043V16.5533C2.75049 19.5733 4.63149 21.7073 7.65449 21.7073H16.3025C19.3265 21.7073 21.2075 19.5733 21.2075 16.5533V8.4043C21.2075 5.38431 19.3265 3.25031 16.3035 3.25031Z" stroke="white" stroke-linecap="round" stroke-linejoin="round"/>
<path fill-rule="evenodd" clip-rule="evenodd" d="M10.7032 9.28551C10.7032 10.3045 9.87621 11.1315 8.85721 11.1315C7.83921 11.1315 7.01221 10.3045 7.01221 9.28551C7.01221 8.26651 7.83921 7.43951 8.85721 7.43951C9.87621 7.43951 10.7032 8.26651 10.7032 9.28551Z" stroke="white" stroke-linecap="round" stroke-linejoin="round"/>
<path d="M21.207 15.4505C20.213 14.5855 19.348 13.5445 18.208 12.8575C17.066 12.1705 15.839 12.5945 15.047 13.6195C14.282 14.6105 13.804 15.9435 12.649 16.5685C11.226 17.3395 10.39 16.0965 9.203 15.5985C7.878 15.0435 6.872 16.0415 6.098 17.0005C5.323 17.9605 4.538 18.9105 3.75 19.8605" stroke="white" stroke-linecap="round" stroke-linejoin="round"/>
</svg>
