<svg width="16" height="16" viewBox="0 0 16 16" fill="none" xmlns="http://www.w3.org/2000/svg">
<path d="M1.04184 2.64122C0.698383 2.04323 0.902206 1.27858 1.4971 0.933324C2.09199 0.588071 2.63377 0.724947 3.19613 1.39095L6.19701 4.51023C6.35159 4.67091 6.58843 4.71973 6.79345 4.63318L9.23567 3.60213C11.9747 2.56454 13.5335 3.94782 14.615 6.31088C15.689 8.6573 15.0659 11.6801 12.7536 13.0221C10.7808 14.167 8.72343 13.808 6.52865 13.7955C5.61381 13.7903 4.47993 14.3549 3.5999 14.6045C3.36246 14.6719 3.10376 14.5704 3.018 14.3379C2.95351 14.163 2.90853 13.981 2.88419 13.7952C2.84159 13.4696 2.86314 13.1388 2.94768 12.8216C3.03222 12.5044 3.17811 12.2071 3.37696 11.9466C3.73179 11.4817 4.3944 10.8373 4.97477 10.4147C5.22708 10.231 5.32606 9.87897 5.16675 9.60983L1.04184 2.64122Z" stroke="white"/>
</svg>
