<svg width="8" height="9" viewBox="0 0 8 9" fill="none" xmlns="http://www.w3.org/2000/svg">
<path d="M0.844563 9V0.599999H4.46856C5.40456 0.599999 6.12856 0.787999 6.64056 1.164C7.16056 1.54 7.42056 2.072 7.42056 2.76C7.42056 3.216 7.31256 3.6 7.09656 3.912C6.88856 4.224 6.60056 4.46 6.23256 4.62C5.87256 4.78 5.47656 4.86 5.04456 4.86L5.24856 4.572C5.78456 4.572 6.24456 4.656 6.62856 4.824C7.02056 4.984 7.32456 5.228 7.54056 5.556C7.75656 5.876 7.86456 6.276 7.86456 6.756C7.86456 7.468 7.60056 8.02 7.07256 8.412C6.55256 8.804 5.76456 9 4.70856 9H0.844563ZM1.73256 8.268H4.69656C5.43256 8.268 5.99656 8.144 6.38856 7.896C6.78056 7.64 6.97656 7.236 6.97656 6.684C6.97656 6.14 6.78056 5.744 6.38856 5.496C5.99656 5.24 5.43256 5.112 4.69656 5.112H1.63656V4.38H4.40856C5.08056 4.38 5.60056 4.252 5.96856 3.996C6.34456 3.74 6.53256 3.36 6.53256 2.856C6.53256 2.344 6.34456 1.964 5.96856 1.716C5.60056 1.46 5.08056 1.332 4.40856 1.332H1.73256V8.268Z" fill="white"/>
</svg>
