<svg width="20" height="20" viewBox="0 0 20 20" fill="none" xmlns="http://www.w3.org/2000/svg">
<path d="M10.5 9.26923C10.5 8.99309 10.2761 8.76923 10 8.76923C9.72386 8.76923 9.5 8.99309 9.5 9.26923H10.5ZM10 19.5L9.64645 19.8536C9.84171 20.0488 10.1583 20.0488 10.3536 19.8536L10 19.5ZM14.0074 16.1997C14.2027 16.0044 14.2027 15.6879 14.0074 15.4926C13.8121 15.2973 13.4956 15.2973 13.3003 15.4926L14.0074 16.1997ZM6.69971 15.4926C6.50445 15.2973 6.18786 15.2973 5.9926 15.4926C5.79734 15.6879 5.79734 16.0044 5.9926 16.1997L6.69971 15.4926ZM4.93958 11.9585C5.21405 11.9282 5.41194 11.681 5.38159 11.4066C5.35123 11.1321 5.10412 10.9342 4.82965 10.9646L4.93958 11.9585ZM3.78846 4.88462L3.78972 4.38462H3.78846V4.88462ZM3.79729 4.88464L3.79603 5.38464L4.15057 5.38553L4.26871 5.05126L3.79729 4.88464ZM15.8934 4.15414L15.4457 4.37663L15.5816 4.65022L15.8871 4.6541L15.8934 4.15414ZM14.3846 10.9615C14.1085 10.9615 13.8846 11.1854 13.8846 11.4615C13.8846 11.7377 14.1085 11.9615 14.3846 11.9615V10.9615ZM9.5 9.26923L9.5 19.5H10.5L10.5 9.26923H9.5ZM13.3003 15.4926L9.64645 19.1464L10.3536 19.8536L14.0074 16.1997L13.3003 15.4926ZM10.3536 19.1464L6.69971 15.4926L5.9926 16.1997L9.64645 19.8536L10.3536 19.1464ZM4.82965 10.9646C4.83164 10.9643 4.78667 10.9665 4.67694 10.9671C4.58151 10.9677 4.4624 10.9674 4.34126 10.9665C4.10609 10.9649 3.85118 10.9615 3.78846 10.9615V11.9615C3.84924 11.9615 4.08243 11.9648 4.33446 11.9665C4.45692 11.9673 4.5812 11.9678 4.68324 11.9671C4.77099 11.9666 4.8776 11.9654 4.93958 11.9585L4.82965 10.9646ZM3.78846 10.9615C2.24843 10.9615 1 9.71311 1 8.17308H0C0 10.2654 1.69615 11.9615 3.78846 11.9615V10.9615ZM1 8.17308C1 6.63305 2.24843 5.38462 3.78846 5.38462V4.38462C1.69615 4.38462 0 6.08076 0 8.17308H1ZM3.7872 5.38461L3.79603 5.38464L3.79856 4.38464L3.78972 4.38462L3.7872 5.38461ZM4.26871 5.05126C5.10316 2.69033 7.35482 1 10 1V0C6.91785 0 4.29712 1.97003 3.32587 4.71802L4.26871 5.05126ZM10 1C12.3854 1 14.4507 2.37432 15.4457 4.37663L16.3412 3.93165C15.1839 1.60246 12.7795 0 10 0V1ZM15.8871 4.6541C17.61 4.67594 19 6.07954 19 7.80769H20C20 5.53151 18.1693 3.68295 15.8998 3.65418L15.8871 4.6541ZM19 7.80769C19 9.54951 17.588 10.9615 15.8462 10.9615V11.9615C18.1403 11.9615 20 10.1018 20 7.80769H19ZM15.8462 10.9615H14.3846V11.9615H15.8462V10.9615Z" fill="white"/>
</svg>
