<svg width="6" height="8" viewBox="0 0 6 8" fill="none" xmlns="http://www.w3.org/2000/svg">
<path d="M3.96094 7.7832L3.89648 8H0.626953L0.708984 7.7832C1.03711 7.77539 1.25391 7.74805 1.35938 7.70117C1.53125 7.63477 1.6582 7.54297 1.74023 7.42578C1.86914 7.24219 2.00195 6.91406 2.13867 6.44141L3.52148 1.64844C3.63867 1.25 3.69727 0.949219 3.69727 0.746094C3.69727 0.644531 3.67188 0.558594 3.62109 0.488281C3.57031 0.417969 3.49219 0.365234 3.38672 0.330078C3.28516 0.291016 3.08398 0.271484 2.7832 0.271484L2.85352 0.0546875H5.92383L5.85938 0.271484C5.60938 0.267578 5.42383 0.294922 5.30273 0.353516C5.12695 0.431641 4.99219 0.542969 4.89844 0.6875C4.80859 0.832031 4.69141 1.15234 4.54688 1.64844L3.16992 6.44141C3.04492 6.88281 2.98242 7.16406 2.98242 7.28516C2.98242 7.38281 3.00586 7.4668 3.05273 7.53711C3.10352 7.60352 3.18164 7.65625 3.28711 7.69531C3.39648 7.73047 3.62109 7.75977 3.96094 7.7832Z" fill="white"/>
</svg>
