<svg width="19" height="19" viewBox="0 0 19 19" fill="none" xmlns="http://www.w3.org/2000/svg">
<path d="M16.1889 16.1891H13.3737V11.7803C13.3737 10.7289 13.3549 9.37556 11.9095 9.37556C10.4432 9.37556 10.2189 10.5211 10.2189 11.7037V16.1888H7.40377V7.12251H10.1063V8.36151H10.1441C10.4146 7.89906 10.8054 7.51862 11.275 7.26071C11.7446 7.00281 12.2753 6.87709 12.8107 6.89696C15.664 6.89696 16.1901 8.7738 16.1901 11.2154L16.1889 16.1891ZM4.2272 5.88328C3.32493 5.88342 2.59335 5.15207 2.5932 4.2498C2.59305 3.34752 3.32433 2.61594 4.22661 2.6158C5.12889 2.61557 5.86046 3.34692 5.86061 4.2492C5.86069 4.68249 5.68864 5.09807 5.38232 5.40452C5.076 5.71096 4.6605 5.88318 4.2272 5.88328ZM5.63484 16.1891H2.81668V7.12251H5.63476V16.1891L5.63484 16.1891ZM17.5924 0.00129128H1.40207C0.636871 -0.00731809 0.00935156 0.605655 0 1.37085V17.6287C0.00905469 18.3943 0.6365 19.0078 1.40199 18.9998H17.5924C18.3595 19.0093 18.9894 18.3957 19 17.6287V1.36959C18.9891 0.602908 18.3591 -0.00998997 17.5924 2.95643e-05" fill="#0A66C2"/>
</svg>
