<svg width="22" height="22" viewBox="0 0 22 22" fill="none" xmlns="http://www.w3.org/2000/svg">
<path fill-rule="evenodd" clip-rule="evenodd" d="M11 1.49994C11.2761 1.49994 11.5 1.72379 11.5 1.99994L11.5 10.6924L20.1924 10.6923C20.4686 10.6923 20.6924 10.9162 20.6924 11.1923C20.6924 11.4685 20.4686 11.6923 20.1924 11.6923L11.5 11.6924L11.5001 20.3847C11.5001 20.6608 11.2762 20.8847 11.0001 20.8847C10.7239 20.8847 10.5001 20.6608 10.5001 20.3847L10.5 11.6924L1.80761 11.6923C1.53147 11.6923 1.30762 11.4684 1.30762 11.1923C1.30762 10.9162 1.53148 10.6923 1.80762 10.6923L10.5 10.6924L10.5 1.99994C10.5 1.7238 10.7238 1.49994 11 1.49994Z" fill="black" stroke="#222222" stroke-width="2" stroke-linecap="round" stroke-linejoin="round"/>
</svg>
