<svg width="20" height="22" viewBox="0 0 20 22" fill="none" xmlns="http://www.w3.org/2000/svg">
<path d="M5.61538 4.22948V6.48627M13.6538 13.2566C13.6538 15.3339 12.018 17.0179 10 17.0179C7.98203 17.0179 6.34615 15.3339 6.34615 13.2566C6.34615 11.1793 7.98203 9.49532 10 9.49532C12.018 9.49532 13.6538 11.1793 13.6538 13.2566ZM4.5 20.7793L15.5 20.7793C17.7091 20.7793 19.5 18.9357 19.5 16.6616V7.4396C19.5 6.34753 19.0786 5.30019 18.3284 4.52798L16.287 2.42648C15.5368 1.65428 14.5194 1.22046 13.4585 1.22046L4.5 1.22047C2.29086 1.22048 0.5 3.06401 0.5 5.33812L0.5 16.6616C0.500001 18.9357 2.29086 20.7793 4.5 20.7793Z" stroke="white" stroke-linecap="round"/>
</svg>
