<svg width="15" height="14" viewBox="0 0 15 14" fill="none" xmlns="http://www.w3.org/2000/svg">
<path d="M10.368 7.66732C10.868 7.66732 11.308 7.39398 11.5346 6.98065L13.9213 2.65398C14.168 2.21398 13.848 1.66732 13.3413 1.66732H3.47464L2.84797 0.333984H0.667969V1.66732H2.0013L4.4013 6.72732L3.5013 8.35398C3.01464 9.24732 3.65464 10.334 4.66797 10.334H12.668V9.00065H4.66797L5.4013 7.66732H10.368ZM4.10797 3.00065H12.208L10.368 6.33398H5.68797L4.10797 3.00065ZM4.66797 11.0007C3.93464 11.0007 3.3413 11.6007 3.3413 12.334C3.3413 13.0673 3.93464 13.6673 4.66797 13.6673C5.4013 13.6673 6.0013 13.0673 6.0013 12.334C6.0013 11.6007 5.4013 11.0007 4.66797 11.0007ZM11.3346 11.0007C10.6013 11.0007 10.008 11.6007 10.008 12.334C10.008 13.0673 10.6013 13.6673 11.3346 13.6673C12.068 13.6673 12.668 13.0673 12.668 12.334C12.668 11.6007 12.068 11.0007 11.3346 11.0007Z" fill="#8C8C8C"/>
</svg>
