<svg width="26" height="21" viewBox="0 0 26 21" fill="none" xmlns="http://www.w3.org/2000/svg">
<path d="M26 2.55716C25.0264 2.98387 23.9937 3.26396 22.9363 3.38812C24.0377 2.73501 24.8834 1.70079 25.2816 0.468518C24.2346 1.08323 23.089 1.51634 21.8944 1.74912C20.9214 0.723533 19.5351 0.0825806 18.0008 0.0825806C15.0549 0.0825806 12.6665 2.44543 12.6665 5.35971C12.6665 5.77338 12.7137 6.1761 12.8046 6.56244C8.37139 6.34229 4.44092 4.24138 1.80995 1.04858C1.35088 1.82799 1.08784 2.73461 1.08784 3.70161C1.08784 5.53253 2.02962 7.14772 3.46084 8.09413C2.61376 8.06788 1.78532 7.84154 1.04467 7.43399C1.04437 7.45609 1.04437 7.4782 1.04437 7.5004C1.04437 10.0573 2.88305 12.1902 5.32319 12.675C4.5377 12.8864 3.71376 12.9173 2.91434 12.7655C3.59308 14.8621 5.56309 16.3877 7.8972 16.4304C6.07161 17.8458 3.77152 18.6895 1.27248 18.6895C0.841852 18.6895 0.41732 18.6645 0 18.6157C2.36062 20.1131 5.16445 20.9867 8.1768 20.9867C17.9884 20.9867 23.3537 12.9453 23.3537 5.97172C23.3537 5.74283 23.3486 5.51525 23.3383 5.28897C24.3825 4.5421 25.2839 3.61703 26 2.55716Z" fill="#55ACEE"/>
</svg>
