<svg width="10" height="9" viewBox="0 0 10 9" fill="none" xmlns="http://www.w3.org/2000/svg">
<path d="M6.38867 0.271484V0.0546875H9.20117V0.271484H8.90234C8.58984 0.271484 8.34961 0.402344 8.18164 0.664062C8.09961 0.785156 8.05859 1.06641 8.05859 1.50781V4.73047C8.05859 5.52734 7.97852 6.14648 7.81836 6.58789C7.66211 7.02539 7.35156 7.40234 6.88672 7.71875C6.42578 8.03125 5.79688 8.1875 5 8.1875C4.13281 8.1875 3.47461 8.03711 3.02539 7.73633C2.57617 7.43555 2.25781 7.03125 2.07031 6.52344C1.94531 6.17578 1.88281 5.52344 1.88281 4.56641V1.46094C1.88281 0.972656 1.81445 0.652344 1.67773 0.5C1.54492 0.347656 1.32812 0.271484 1.02734 0.271484H0.728516V0.0546875H4.16211V0.271484H3.85742C3.5293 0.271484 3.29492 0.375 3.1543 0.582031C3.05664 0.722656 3.00781 1.01562 3.00781 1.46094V4.92383C3.00781 5.23242 3.03516 5.58594 3.08984 5.98438C3.14844 6.38281 3.25195 6.69336 3.40039 6.91602C3.54883 7.13867 3.76172 7.32227 4.03906 7.4668C4.32031 7.61133 4.66406 7.68359 5.07031 7.68359C5.58984 7.68359 6.05469 7.57031 6.46484 7.34375C6.875 7.11719 7.1543 6.82812 7.30273 6.47656C7.45508 6.12109 7.53125 5.52148 7.53125 4.67773V1.46094C7.53125 0.964844 7.47656 0.654297 7.36719 0.529297C7.21484 0.357422 6.98828 0.271484 6.6875 0.271484H6.38867Z" fill="white"/>
<path d="M0.664062 9.59961H9.33008V10.1855H0.664062V9.59961Z" fill="white"/>
</svg>
